<?xml version="1.0" encoding="utf-8"?>
<!-- Generator: Adobe Illustrator 22.0.0, SVG Export Plug-In . SVG Version: 6.00 Build 0)  -->
<svg version="1.1" id="Слой_1" xmlns="http://www.w3.org/2000/svg" xmlns:xlink="http://www.w3.org/1999/xlink" x="0px" y="0px"
	 viewBox="0 0 1920.1 1080" style="enable-background:new 0 0 1920.1 1080;" xml:space="preserve">
<style type="text/css">
	.st0{opacity:5.000000e-02;fill:#53A5F8;}
	.st1{opacity:0.1;fill:#53A5F8;}
	.st2{opacity:0.2;fill:url(#SVGID_1_);}
	.st3{fill:#81DAFE;}
	.st4{opacity:0.8;fill:#81DAFE;}
	.st5{opacity:0.6;fill:#81DAFE;}
	.st6{opacity:0.4;fill:#81DAFE;}
	.st7{opacity:0.2;fill:#81DAFE;}
	.st8{opacity:0.2;fill:url(#SVGID_2_);}
	.st9{opacity:0.2;fill:url(#SVGID_3_);}
</style>
<title>Ресурс 1</title>
<g>
	<polygon class="st0" points="1795.8,2155.9 -139.2,1038.8 1795.7,-78.4 3730.7,1038.8 	"/>
	<polygon class="st1" points="1549.1,1984.5 -385.9,867.3 1549,-249.8 3484,867.3 	"/>
	<radialGradient id="SVGID_1_" cx="1337.7316" cy="351.1068" r="2466.2576" gradientUnits="userSpaceOnUse">
		<stop  offset="0" style="stop-color:#FC2FFD"/>
		<stop  offset="3.135657e-02" style="stop-color:#E92BEC"/>
		<stop  offset="0.1121" style="stop-color:#BD21C5"/>
		<stop  offset="0.1991" style="stop-color:#9619A2"/>
		<stop  offset="0.2911" style="stop-color:#761285"/>
		<stop  offset="0.3895" style="stop-color:#5B0C6D"/>
		<stop  offset="0.497" style="stop-color:#47085B"/>
		<stop  offset="0.6178" style="stop-color:#38044E"/>
		<stop  offset="0.7633" style="stop-color:#300346"/>
		<stop  offset="1" style="stop-color:#2D0244"/>
	</radialGradient>
	<polygon class="st2" points="1362.9,1886.4 -572,769.2 1362.9,-347.9 3297.9,769.2 	"/>
	<polygon class="st1" points="746.8,1999.3 -1813,521.4 746.7,-956.5 3306.6,521.4 	"/>
	<g>
		<g>
			<path class="st3" d="M1152-395.1c-6.1,3.5-15.9,3.5-22,0c-6.1-3.5-6.1-9.2,0-12.7c6.1-3.5,15.9-3.5,22,0
				C1158.1-404.3,1158.1-398.6,1152-395.1z"/>
			<path class="st4" d="M1187.5-374.7c-6.1,3.5-15.9,3.5-22,0c-6.1-3.5-6.1-9.2,0-12.7c6.1-3.5,15.9-3.5,22,0
				C1193.5-383.8,1193.5-378.2,1187.5-374.7z"/>
			<path class="st5" d="M1222.9-354.2c-6.1,3.5-15.9,3.5-22,0c-6.1-3.5-6.1-9.2,0-12.7c6.1-3.5,15.9-3.5,22,0
				C1229-363.4,1229-357.7,1222.9-354.2z"/>
			<path class="st6" d="M1258.4-333.7c-6.1,3.5-15.9,3.5-22,0c-6.1-3.5-6.1-9.2,0-12.7c6.1-3.5,15.9-3.5,22,0
				C1264.4-342.9,1264.4-337.2,1258.4-333.7z"/>
			<path class="st7" d="M1293.8-313.3c-6.1,3.5-15.9,3.5-22,0c-6.1-3.5-6.1-9.2,0-12.7c6.1-3.5,15.9-3.5,22,0
				C1299.9-322.5,1299.9-316.8,1293.8-313.3z"/>
		</g>
		<g>
			<path class="st3" d="M1241.3-446.7c-6.1,3.5-15.9,3.5-22,0c-6.1-3.5-6.1-9.2,0-12.7c6.1-3.5,15.9-3.5,22,0
				C1247.4-455.8,1247.4-450.2,1241.3-446.7z"/>
			<path class="st4" d="M1276.7-426.2c-6.1,3.5-15.9,3.5-22,0c-6.1-3.5-6.1-9.2,0-12.7c6.1-3.5,15.9-3.5,22,0
				C1282.8-435.4,1282.8-429.7,1276.7-426.2z"/>
			<ellipse class="st5" cx="1301.2" cy="-412.1" rx="15.5" ry="9"/>
			<ellipse class="st6" cx="1336.6" cy="-391.6" rx="15.5" ry="9"/>
			<path class="st7" d="M1383.1-364.8c-6.1,3.5-15.9,3.5-22,0c-6.1-3.5-6.1-9.2,0-12.7c6.1-3.5,15.9-3.5,22,0
				C1389.1-374,1389.1-368.3,1383.1-364.8z"/>
		</g>
	</g>
	<polygon class="st0" points="970.5,1666 -964.4,548.9 970.5,-568.3 2905.4,548.9 	"/>
	<polygon class="st1" points="817.2,1558.4 -1117.8,441.2 817.1,-675.9 2752.1,441.2 	"/>
	<radialGradient id="SVGID_2_" cx="587.6929" cy="-73.9596" r="2466.2576" gradientUnits="userSpaceOnUse">
		<stop  offset="0" style="stop-color:#FC2FFD"/>
		<stop  offset="3.135657e-02" style="stop-color:#E92BEC"/>
		<stop  offset="0.1121" style="stop-color:#BD21C5"/>
		<stop  offset="0.1991" style="stop-color:#9619A2"/>
		<stop  offset="0.2911" style="stop-color:#761285"/>
		<stop  offset="0.3895" style="stop-color:#5B0C6D"/>
		<stop  offset="0.497" style="stop-color:#47085B"/>
		<stop  offset="0.6178" style="stop-color:#38044E"/>
		<stop  offset="0.7633" style="stop-color:#300346"/>
		<stop  offset="1" style="stop-color:#2D0244"/>
	</radialGradient>
	<polygon class="st8" points="612.9,1461.3 -1322.1,344.1 612.9,-773 2547.8,344.2 	"/>
	<polygon class="st0" points="328.3,1382.1 -1606.7,265 328.2,-852.1 2263.2,265 	"/>
	<radialGradient id="SVGID_3_" cx="140.9278" cy="-250.8041" r="2466.2576" gradientUnits="userSpaceOnUse">
		<stop  offset="0" style="stop-color:#FC2FFD"/>
		<stop  offset="3.135657e-02" style="stop-color:#E92BEC"/>
		<stop  offset="0.1121" style="stop-color:#BD21C5"/>
		<stop  offset="0.1991" style="stop-color:#9619A2"/>
		<stop  offset="0.2911" style="stop-color:#761285"/>
		<stop  offset="0.3895" style="stop-color:#5B0C6D"/>
		<stop  offset="0.497" style="stop-color:#47085B"/>
		<stop  offset="0.6178" style="stop-color:#38044E"/>
		<stop  offset="0.7633" style="stop-color:#300346"/>
		<stop  offset="1" style="stop-color:#2D0244"/>
	</radialGradient>
	<polygon class="st9" points="166.1,1284.5 -1768.8,167.3 166.1,-949.8 2101.1,167.3 	"/>
	<polygon class="st1" points="-122.9,1167.5 -2057.9,50.3 -122.9,-1066.8 1812,50.3 	"/>
</g>
</svg>
